<svg xmlns="http://www.w3.org/2000/svg" xmlns:xlink="http://www.w3.org/1999/xlink" width="500" zoomAndPan="magnify" viewBox="0 0 375 374.999991" height="500" preserveAspectRatio="xMidYMid meet" version="1.0"><defs><clipPath id="543b376aa0"><path d="M 48.328125 63 L 326.578125 63 L 326.578125 375 L 48.328125 375 Z M 48.328125 63 " clip-rule="nonzero"/></clipPath></defs><path fill="#ffffff" d="M 374.996094 187.496094 C 374.996094 190.566406 374.917969 193.632812 374.769531 196.695312 C 374.617188 199.761719 374.390625 202.820312 374.089844 205.875 C 373.789062 208.929688 373.414062 211.972656 372.964844 215.007812 C 372.515625 218.042969 371.992188 221.066406 371.390625 224.074219 C 370.792969 227.085938 370.121094 230.078125 369.375 233.054688 C 368.628906 236.03125 367.8125 238.988281 366.921875 241.925781 C 366.03125 244.859375 365.066406 247.773438 364.035156 250.664062 C 363 253.550781 361.894531 256.414062 360.722656 259.25 C 359.546875 262.085938 358.304688 264.886719 356.992188 267.664062 C 355.679688 270.4375 354.300781 273.175781 352.855469 275.882812 C 351.410156 278.589844 349.894531 281.257812 348.320312 283.890625 C 346.742188 286.523438 345.101562 289.113281 343.394531 291.664062 C 341.691406 294.214844 339.925781 296.722656 338.097656 299.1875 C 336.269531 301.652344 334.382812 304.070312 332.433594 306.445312 C 330.488281 308.816406 328.484375 311.140625 326.421875 313.414062 C 324.363281 315.6875 322.246094 317.90625 320.078125 320.078125 C 317.90625 322.246094 315.6875 324.363281 313.414062 326.421875 C 311.140625 328.484375 308.816406 330.488281 306.445312 332.433594 C 304.070312 334.382812 301.652344 336.269531 299.1875 338.097656 C 296.722656 339.925781 294.214844 341.691406 291.664062 343.394531 C 289.113281 345.101562 286.523438 346.742188 283.890625 348.320312 C 281.257812 349.894531 278.589844 351.410156 275.882812 352.855469 C 273.175781 354.300781 270.4375 355.679688 267.664062 356.992188 C 264.886719 358.304688 262.085938 359.546875 259.25 360.722656 C 256.414062 361.894531 253.550781 363 250.664062 364.035156 C 247.773438 365.066406 244.859375 366.03125 241.925781 366.921875 C 238.988281 367.8125 236.03125 368.628906 233.054688 369.375 C 230.078125 370.121094 227.085938 370.792969 224.074219 371.390625 C 221.066406 371.992188 218.042969 372.515625 215.007812 372.964844 C 211.972656 373.414062 208.929688 373.789062 205.875 374.089844 C 202.820312 374.390625 199.761719 374.617188 196.695312 374.769531 C 193.632812 374.917969 190.566406 374.996094 187.496094 374.996094 C 184.429688 374.996094 181.363281 374.917969 178.296875 374.769531 C 175.230469 374.617188 172.171875 374.390625 169.121094 374.089844 C 166.066406 373.789062 163.019531 373.414062 159.984375 372.964844 C 156.949219 372.515625 153.929688 371.992188 150.917969 371.390625 C 147.910156 370.792969 144.914062 370.121094 141.9375 369.375 C 138.960938 368.628906 136.007812 367.8125 133.070312 366.921875 C 130.132812 366.03125 127.21875 365.066406 124.332031 364.035156 C 121.441406 363 118.578125 361.894531 115.746094 360.722656 C 112.910156 359.546875 110.105469 358.304688 107.332031 356.992188 C 104.558594 355.679688 101.816406 354.300781 99.113281 352.855469 C 96.40625 351.410156 93.734375 349.894531 91.105469 348.320312 C 88.472656 346.742188 85.878906 345.101562 83.328125 343.394531 C 80.777344 341.691406 78.269531 339.925781 75.804688 338.097656 C 73.339844 336.269531 70.921875 334.382812 68.550781 332.433594 C 66.179688 330.488281 63.855469 328.484375 61.582031 326.421875 C 59.308594 324.363281 57.085938 322.246094 54.917969 320.078125 C 52.746094 317.90625 50.632812 315.6875 48.570312 313.414062 C 46.511719 311.140625 44.507812 308.816406 42.558594 306.445312 C 40.613281 304.070312 38.726562 301.652344 36.898438 299.1875 C 35.070312 296.722656 33.304688 294.214844 31.597656 291.664062 C 29.894531 289.113281 28.253906 286.523438 26.675781 283.890625 C 25.097656 281.257812 23.585938 278.589844 22.140625 275.882812 C 20.691406 273.175781 19.3125 270.4375 18 267.664062 C 16.691406 264.886719 15.445312 262.085938 14.273438 259.25 C 13.097656 256.414062 11.992188 253.550781 10.960938 250.664062 C 9.925781 247.773438 8.964844 244.859375 8.074219 241.925781 C 7.183594 238.988281 6.363281 236.03125 5.617188 233.054688 C 4.875 230.078125 4.203125 227.085938 3.601562 224.074219 C 3.003906 221.066406 2.480469 218.042969 2.03125 215.007812 C 1.578125 211.972656 1.203125 208.929688 0.902344 205.875 C 0.601562 202.820312 0.375 199.761719 0.226562 196.695312 C 0.0742188 193.632812 0 190.566406 0 187.496094 C 0 184.429688 0.0742188 181.363281 0.226562 178.296875 C 0.375 175.230469 0.601562 172.171875 0.902344 169.121094 C 1.203125 166.066406 1.578125 163.019531 2.03125 159.984375 C 2.480469 156.949219 3.003906 153.929688 3.601562 150.917969 C 4.203125 147.910156 4.875 144.914062 5.617188 141.9375 C 6.363281 138.960938 7.183594 136.007812 8.074219 133.070312 C 8.964844 130.132812 9.925781 127.21875 10.960938 124.332031 C 11.992188 121.441406 13.097656 118.578125 14.273438 115.746094 C 15.445312 112.910156 16.691406 110.105469 18 107.332031 C 19.3125 104.558594 20.691406 101.816406 22.140625 99.113281 C 23.585938 96.40625 25.097656 93.734375 26.675781 91.105469 C 28.253906 88.472656 29.894531 85.878906 31.597656 83.328125 C 33.304688 80.777344 35.070312 78.269531 36.898438 75.804688 C 38.726562 73.339844 40.613281 70.921875 42.558594 68.550781 C 44.507812 66.179688 46.511719 63.855469 48.570312 61.582031 C 50.632812 59.308594 52.746094 57.085938 54.917969 54.917969 C 57.085938 52.746094 59.308594 50.632812 61.582031 48.570312 C 63.855469 46.511719 66.179688 44.507812 68.550781 42.558594 C 70.921875 40.613281 73.339844 38.726562 75.804688 36.898438 C 78.269531 35.070312 80.777344 33.304688 83.328125 31.597656 C 85.878906 29.894531 88.472656 28.253906 91.105469 26.675781 C 93.734375 25.097656 96.40625 23.585938 99.113281 22.140625 C 101.816406 20.691406 104.558594 19.3125 107.332031 18 C 110.105469 16.691406 112.910156 15.445312 115.746094 14.273438 C 118.578125 13.097656 121.441406 11.992188 124.332031 10.960938 C 127.21875 9.925781 130.132812 8.964844 133.070312 8.074219 C 136.007812 7.183594 138.960938 6.363281 141.9375 5.617188 C 144.914062 4.875 147.910156 4.203125 150.917969 3.601562 C 153.929688 3.003906 156.949219 2.480469 159.984375 2.03125 C 163.019531 1.578125 166.066406 1.203125 169.121094 0.902344 C 172.171875 0.601562 175.230469 0.375 178.296875 0.226562 C 181.363281 0.0742188 184.429688 0 187.496094 0 C 190.566406 0 193.632812 0.0742188 196.695312 0.226562 C 199.761719 0.375 202.820312 0.601562 205.875 0.902344 C 208.929688 1.203125 211.972656 1.578125 215.007812 2.03125 C 218.042969 2.480469 221.066406 3.003906 224.074219 3.601562 C 227.085938 4.203125 230.078125 4.875 233.054688 5.617188 C 236.03125 6.363281 238.988281 7.183594 241.925781 8.074219 C 244.859375 8.964844 247.773438 9.925781 250.664062 10.960938 C 253.550781 11.992188 256.414062 13.097656 259.25 14.273438 C 262.085938 15.445312 264.886719 16.691406 267.664062 18 C 270.4375 19.3125 273.175781 20.691406 275.882812 22.140625 C 278.589844 23.585938 281.257812 25.097656 283.890625 26.675781 C 286.523438 28.253906 289.113281 29.894531 291.664062 31.597656 C 294.214844 33.304688 296.722656 35.070312 299.1875 36.898438 C 301.652344 38.726562 304.070312 40.613281 306.445312 42.558594 C 308.816406 44.507812 311.140625 46.511719 313.414062 48.570312 C 315.6875 50.632812 317.90625 52.746094 320.078125 54.917969 C 322.246094 57.085938 324.363281 59.308594 326.421875 61.582031 C 328.484375 63.855469 330.488281 66.179688 332.433594 68.550781 C 334.382812 70.921875 336.269531 73.339844 338.097656 75.804688 C 339.925781 78.269531 341.691406 80.777344 343.394531 83.328125 C 345.101562 85.878906 346.742188 88.472656 348.320312 91.105469 C 349.894531 93.734375 351.410156 96.40625 352.855469 99.113281 C 354.300781 101.816406 355.679688 104.558594 356.992188 107.332031 C 358.304688 110.105469 359.546875 112.910156 360.722656 115.746094 C 361.894531 118.578125 363 121.441406 364.035156 124.332031 C 365.066406 127.21875 366.03125 130.132812 366.921875 133.070312 C 367.8125 136.007812 368.628906 138.960938 369.375 141.9375 C 370.121094 144.914062 370.792969 147.910156 371.390625 150.917969 C 371.992188 153.929688 372.515625 156.949219 372.964844 159.984375 C 373.414062 163.019531 373.789062 166.066406 374.089844 169.121094 C 374.390625 172.171875 374.617188 175.230469 374.769531 178.296875 C 374.917969 181.363281 374.996094 184.429688 374.996094 187.496094 Z M 374.996094 187.496094 " fill-opacity="1" fill-rule="nonzero"/><g clip-path="url(#543b376aa0)"><path fill="#000000" d="M 48.328125 113.746094 L 48.328125 113.136719 C 48.617188 112.953125 48.851562 112.644531 49.03125 112.214844 C 58.675781 88.828125 78.492188 68.242188 104.292969 64.167969 C 128.101562 60.398438 151.320312 72.441406 165.625 91.199219 C 174.949219 103.429688 181.011719 116.839844 183.816406 131.421875 C 184.066406 132.722656 184.316406 132.722656 184.574219 131.429688 C 187.472656 116.890625 193.328125 103.730469 202.140625 91.953125 C 214.964844 74.8125 235.46875 63.039062 257.234375 63.386719 C 289.496094 63.910156 313.984375 84.433594 326.535156 113.085938 C 326.589844 113.203125 326.574219 113.3125 326.484375 113.410156 C 326.398438 113.507812 326.292969 113.539062 326.167969 113.496094 C 319.222656 111.386719 312.113281 109.871094 304.839844 108.945312 C 292.253906 107.335938 279.285156 107.980469 265.929688 110.875 C 265.199219 111.035156 264.753906 110.265625 264.386719 109.722656 C 259.710938 102.839844 254.425781 96.238281 248.535156 89.921875 C 248.457031 89.839844 248.363281 89.777344 248.257812 89.734375 C 248.152344 89.691406 248.039062 89.671875 247.925781 89.679688 C 247.8125 89.683594 247.703125 89.714844 247.601562 89.769531 C 247.5 89.824219 247.414062 89.898438 247.34375 89.988281 C 247.257812 90.109375 247.242188 90.363281 247.300781 90.742188 C 248.578125 98.878906 250.066406 106.921875 251.761719 114.867188 C 251.789062 114.976562 251.753906 115.0625 251.65625 115.125 C 251.558594 115.183594 251.460938 115.179688 251.371094 115.109375 C 243.164062 108.785156 233.421875 103.503906 223.199219 101.613281 C 223.019531 101.582031 222.847656 101.601562 222.683594 101.679688 C 222.519531 101.753906 222.390625 101.871094 222.300781 102.027344 C 222.210938 102.183594 222.171875 102.351562 222.183594 102.535156 C 222.199219 102.714844 222.265625 102.875 222.378906 103.015625 L 235.296875 118.445312 C 235.738281 118.972656 235.613281 119.234375 234.925781 119.222656 C 231.226562 119.171875 227.214844 119.015625 223.6875 119.566406 C 213.25 121.179688 204.28125 125.785156 196.785156 133.382812 C 196.457031 133.71875 196.519531 133.839844 196.976562 133.742188 C 197.46875 133.644531 198.148438 133.46875 199.019531 133.21875 C 207.464844 130.808594 216.84375 129.285156 227.152344 128.644531 C 239.339844 127.890625 250.738281 128.765625 261.34375 131.273438 C 276.101562 134.757812 288.503906 141.890625 298.550781 152.664062 C 313.058594 168.21875 321.265625 190.003906 322.378906 211.097656 C 323.015625 223.148438 321.871094 235.042969 318.941406 246.785156 C 318.921875 246.863281 318.871094 246.902344 318.792969 246.910156 C 318.710938 246.917969 318.660156 246.882812 318.628906 246.8125 C 311.703125 230.535156 302.183594 215.960938 290.070312 203.082031 C 289.90625 202.910156 289.820312 202.703125 289.816406 202.46875 C 289.789062 201.367188 290.148438 199.984375 290.242188 199.199219 C 291.058594 191.9375 291.078125 184.652344 290.308594 177.339844 C 290.277344 177.0625 290.128906 176.894531 289.851562 176.835938 C 289.578125 176.78125 289.375 176.878906 289.238281 177.125 L 279.390625 195.03125 C 279.359375 195.089844 279.3125 195.136719 279.257812 195.171875 C 279.199219 195.207031 279.136719 195.226562 279.070312 195.230469 C 279.003906 195.234375 278.941406 195.222656 278.878906 195.195312 C 278.820312 195.164062 278.769531 195.125 278.730469 195.070312 C 273.910156 188.210938 268.332031 182.027344 261.996094 176.515625 C 261.808594 176.351562 261.699219 176.148438 261.671875 175.898438 C 259.554688 158.699219 246.015625 146.105469 230.070312 141.277344 C 228.386719 140.769531 226.433594 140.335938 224.21875 139.96875 C 222.238281 139.636719 220.261719 139.347656 218.285156 139.109375 C 218.171875 139.097656 218.070312 139.125 217.976562 139.191406 C 217.886719 139.257812 217.828125 139.34375 217.796875 139.453125 C 217.769531 139.5625 217.78125 139.667969 217.832031 139.769531 C 217.882812 139.871094 217.957031 139.941406 218.0625 139.988281 C 234.546875 146.636719 246.363281 161.332031 250.035156 178.773438 C 252.097656 188.578125 251.554688 199.433594 249.621094 209.433594 C 249.40625 210.570312 249.054688 210.613281 248.570312 209.554688 C 241.265625 193.542969 227.019531 179.199219 209.78125 173.507812 C 209.574219 173.4375 209.53125 173.3125 209.660156 173.132812 L 220.382812 157.730469 C 220.527344 157.519531 220.542969 157.300781 220.429688 157.074219 C 220.164062 156.542969 219.644531 156.402344 218.867188 156.65625 C 211.355469 159.074219 204.726562 162.984375 198.984375 168.382812 C 198.636719 168.710938 198.335938 168.933594 198.082031 169.046875 C 197.664062 169.238281 197.304688 169.226562 197.007812 169.011719 C 196.808594 168.867188 196.605469 168.867188 196.402344 169.003906 C 196.199219 169.140625 196.125 169.328125 196.183594 169.570312 C 200.003906 184.660156 203 199.824219 205.183594 215.058594 C 205.824219 219.527344 206.351562 224.011719 206.761719 228.511719 C 206.917969 230.226562 207.460938 233.242188 207.386719 235.730469 C 207.335938 237.292969 207.898438 238.609375 207.917969 240.089844 C 207.984375 245.453125 208.644531 251.097656 208.65625 256.074219 C 208.683594 264.566406 208.679688 273.0625 208.644531 281.554688 C 208.613281 288.792969 207.742188 299.824219 206.027344 314.644531 C 202.671875 343.621094 196.257812 371.835938 186.78125 399.289062 C 186.671875 399.605469 186.449219 399.761719 186.113281 399.769531 L 154.152344 399.890625 C 153.488281 399.890625 153.292969 399.589844 153.5625 398.988281 C 166.1875 370.65625 174.988281 340.988281 180.445312 310.53125 C 185.148438 284.261719 187.527344 258.605469 187.578125 233.5625 C 187.621094 214.257812 186.347656 195.039062 183.75 175.910156 C 183.394531 173.273438 182.964844 170.644531 182.460938 168.03125 C 182.417969 167.792969 182.304688 167.75 182.113281 167.898438 L 180.414062 169.269531 C 180.246094 169.402344 180.078125 169.40625 179.910156 169.273438 C 179.265625 168.769531 178.320312 167.980469 177.078125 166.914062 C 172.621094 163.09375 167.515625 160.054688 161.757812 157.796875 C 160.574219 157.332031 159.277344 157.109375 158.035156 156.703125 C 157.894531 156.652344 157.753906 156.652344 157.613281 156.695312 C 157.472656 156.738281 157.355469 156.816406 157.269531 156.9375 C 157.179688 157.054688 157.132812 157.1875 157.132812 157.332031 C 157.128906 157.480469 157.171875 157.617188 157.253906 157.738281 L 167.382812 172.726562 C 167.605469 173.054688 167.53125 173.285156 167.15625 173.421875 C 150.035156 179.652344 136.191406 193.878906 128.59375 210.289062 C 128.523438 210.433594 128.410156 210.5 128.253906 210.480469 C 128.09375 210.460938 127.996094 210.375 127.964844 210.21875 C 124.855469 195.457031 125.125 180.019531 131.523438 166.28125 C 137.269531 153.933594 146.460938 145.144531 159.09375 139.921875 C 159.183594 139.886719 159.25 139.828125 159.296875 139.746094 C 159.339844 139.660156 159.355469 139.570312 159.332031 139.476562 C 159.3125 139.382812 159.265625 139.308594 159.1875 139.25 C 159.109375 139.195312 159.023438 139.167969 158.929688 139.175781 C 138.183594 140.027344 119.023438 154.355469 116.125 175.722656 C 116.089844 175.949219 115.988281 176.136719 115.816406 176.285156 C 109.304688 181.8125 103.585938 188.058594 98.660156 195.023438 C 98.625 195.074219 98.582031 195.109375 98.53125 195.136719 C 98.480469 195.160156 98.421875 195.171875 98.363281 195.171875 C 98.304688 195.167969 98.25 195.152344 98.203125 195.121094 C 98.152344 195.089844 98.113281 195.050781 98.082031 194.996094 C 94.933594 189.65625 91.925781 184.183594 89.058594 178.578125 C 89 178.460938 88.890625 178.203125 88.738281 177.8125 C 88.589844 177.421875 88.417969 177.195312 88.222656 177.128906 C 87.59375 176.914062 87.234375 177.132812 87.140625 177.792969 C 85.996094 186.183594 86.605469 193.726562 87.445312 202.101562 C 87.476562 202.46875 87.371094 202.785156 87.121094 203.050781 C 75.074219 215.722656 65.664062 230.167969 58.890625 246.390625 C 58.828125 246.539062 58.773438 246.671875 58.734375 246.792969 C 58.695312 246.914062 58.609375 246.972656 58.480469 246.964844 C 58.351562 246.957031 58.273438 246.890625 58.246094 246.765625 C 54.878906 233.554688 53.957031 219.445312 55.082031 206.378906 C 55.410156 202.609375 56.207031 198.074219 57.472656 192.769531 C 60.300781 180.894531 65.175781 169.941406 72.105469 159.917969 C 85.734375 140.183594 106.78125 130.347656 130.304688 128.710938 C 144.664062 127.714844 158.714844 129.160156 172.457031 133.046875 C 172.5625 133.085938 172.644531 133.054688 172.699219 132.957031 C 172.753906 132.859375 172.738281 132.773438 172.652344 132.703125 C 165.417969 125.898438 157.070312 121.601562 147.601562 119.808594 C 142.910156 118.914062 137.539062 119.054688 132.570312 119.230469 C 132.171875 119.242188 132.09375 119.089844 132.328125 118.765625 C 136.007812 113.769531 139.839844 108.828125 143.828125 103.945312 C 144.210938 103.472656 144.59375 102.796875 144.976562 101.921875 C 145.066406 101.722656 145.003906 101.609375 144.792969 101.574219 C 143.835938 101.394531 143.035156 101.394531 142.398438 101.574219 C 132.949219 104.203125 124.476562 108.753906 116.984375 115.226562 C 116.835938 115.359375 116.679688 115.375 116.507812 115.28125 C 116.335938 115.183594 116.269531 115.039062 116.300781 114.847656 L 120.292969 90.238281 C 120.339844 89.945312 120.230469 89.730469 119.96875 89.589844 C 119.710938 89.449219 119.472656 89.484375 119.261719 89.6875 C 118.636719 90.285156 118.003906 90.957031 117.363281 91.699219 C 112.09375 97.808594 107.386719 104.265625 103.242188 111.066406 C 103.15625 111.203125 103.039062 111.300781 102.886719 111.359375 C 102.738281 111.417969 102.589844 111.425781 102.4375 111.382812 C 84.445312 106.152344 66.652344 107.535156 48.328125 113.746094 Z M 48.328125 113.746094 " fill-opacity="1" fill-rule="nonzero"/></g></svg>